<svg xmlns="http://www.w3.org/2000/svg" viewBox="0 0 900 360" role="img"><rect width="900" height="360" rx="28" fill="#fff7ed"/><path d="M115 175 205 95l90 80v105H115z" fill="#fff" stroke="#ea580c" stroke-width="7"/><path d="M92 180 205 78l113 102" fill="none" stroke="#ea580c" stroke-width="10" stroke-linecap="round" stroke-linejoin="round"/><rect x="184" y="215" width="42" height="65" rx="5" fill="#fed7aa"/><rect x="145" y="188" width="30" height="30" fill="#ffedd5"/><rect x="235" y="188" width="30" height="30" fill="#ffedd5"/><text x="205" y="326" text-anchor="middle" font-family="Arial" font-size="26" font-weight="700" fill="#0f172a">المقاسات</text><rect x="365" y="110" width="190" height="145" rx="20" fill="#fff" stroke="#fed7aa"/><path d="M400 220h120M430 145v75M475 145v75M520 145v75" stroke="#ea580c" stroke-width="7"/><text x="460" y="290" text-anchor="middle" font-family="Arial" font-size="26" font-weight="700" fill="#0f172a">الحساب</text><rect x="630" y="110" width="190" height="145" rx="20" fill="#fff" stroke="#fed7aa"/><circle cx="725" cy="180" r="44" fill="#ffedd5"/><path d="M700 180h50M725 155v50" stroke="#ea580c" stroke-width="8" stroke-linecap="round"/><text x="725" y="290" text-anchor="middle" font-family="Arial" font-size="26" font-weight="700" fill="#0f172a">الكمية</text><path d="M315 180h35m-13-14 14 14-14 14M575 180h35m-13-14 14 14-14 14" fill="none" stroke="#ea580c" stroke-width="8" stroke-linecap="round" stroke-linejoin="round"/></svg>